<svg style="display:none" xmlns="http://www.w3.org/2000/svg" xmlns:xlink="http://www.w3.org/1999/xlink" version="1.1">
	<symbol id="search" xmlns="http://www.w3.org/2000/svg" viewBox="0 -960 960 960" fill="currentColor"><path d="M784-120 532-372q-30 24-69 38t-83 14q-109 0-184.5-75.5T120-580q0-109 75.5-184.5T380-840q109 0 184.5 75.5T640-580q0 44-14 83t-38 69l252 252-56 56ZM380-400q75 0 127.5-52.5T560-580q0-75-52.5-127.5T380-760q-75 0-127.5 52.5T200-580q0 75 52.5 127.5T380-400Z"/></symbol>
	<symbol id="shopping_bag" xmlns="http://www.w3.org/2000/svg" viewBox="0 -960 960 960" fill="currentColor"><path d="M240-80q-33 0-56.5-23.5T160-160v-480q0-33 23.5-56.5T240-720h80q0-66 47-113t113-47q66 0 113 47t47 113h80q33 0 56.5 23.5T800-640v480q0 33-23.5 56.5T720-80H240Zm0-80h480v-480h-80v80q0 17-11.5 28.5T600-520q-17 0-28.5-11.5T560-560v-80H400v80q0 17-11.5 28.5T360-520q-17 0-28.5-11.5T320-560v-80h-80v480Zm160-560h160q0-33-23.5-56.5T480-800q-33 0-56.5 23.5T400-720ZM240-160v-480 480Z"/></symbol>
	<symbol id="menu" xmlns="http://www.w3.org/2000/svg" viewBox="0 -960 960 960" fill="currentColor"><path d="M120-240v-80h720v80H120Zm0-200v-80h720v80H120Zm0-200v-80h720v80H120Z"/></symbol>
	<symbol id="account_circle" xmlns="http://www.w3.org/2000/svg" viewBox="0 -960 960 960" fill="currentColor"><path d="M234-276q51-39 114-61.5T480-360q69 0 132 22.5T726-276q35-41 54.5-93T800-480q0-133-93.5-226.5T480-800q-133 0-226.5 93.5T160-480q0 59 19.5 111t54.5 93Zm246-164q-59 0-99.5-40.5T340-580q0-59 40.5-99.5T480-720q59 0 99.5 40.5T620-580q0 59-40.5 99.5T480-440Zm0 360q-83 0-156-31.5T197-197q-54-54-85.5-127T80-480q0-83 31.5-156T197-763q54-54 127-85.5T480-880q83 0 156 31.5T763-763q54 54 85.5 127T880-480q0 83-31.5 156T763-197q-54 54-127 85.5T480-80Zm0-80q53 0 100-15.5t86-44.5q-39-29-86-44.5T480-280q-53 0-100 15.5T294-220q39 29 86 44.5T480-160Zm0-360q26 0 43-17t17-43q0-26-17-43t-43-17q-26 0-43 17t-17 43q0 26 17 43t43 17Zm0-60Zm0 360Z"/></symbol>
	<symbol id="close" xmlns="http://www.w3.org/2000/svg" viewBox="0 -960 960 960" fill="currentColor"><path d="m256-200-56-56 224-224-224-224 56-56 224 224 224-224 56 56-224 224 224 224-56 56-224-224-224 224Z"/></symbol>
	<symbol id="chevron-right" xmlns="http://www.w3.org/2000/svg" viewBox="0 -960 960 960" fill="currentColor"><path d="M504-480 320-664l56-56 240 240-240 240-56-56 184-184Z"/></symbol>
	<symbol id="favorite" xmlns="http://www.w3.org/2000/svg" viewBox="0 -960 960 960" fill="currentColor"><path d="m480-120-58-52q-101-91-167-157T150-447.5Q111-500 95.5-544T80-634q0-94 63-157t157-63q52 0 99 22t81 62q34-40 81-62t99-22q94 0 157 63t63 157q0 46-15.5 90T810-447.5Q771-395 705-329T538-172l-58 52Zm0-108q96-86 158-147.5t98-107q36-45.5 50-81t14-70.5q0-60-40-100t-100-40q-47 0-87 26.5T518-680h-76q-15-41-55-67.5T300-774q-60 0-100 40t-40 100q0 35 14 70.5t50 81q36 45.5 98 107T480-228Zm0-273Z"/></symbol>
	<symbol id="home_pin" xmlns="http://www.w3.org/2000/svg" viewBox="0 -960 960 960" fill="currentColor"><path d="M360-440h80v-110h80v110h80v-190l-120-80-120 80v190Zm120 254q122-112 181-203.5T720-552q0-109-69.5-178.5T480-800q-101 0-170.5 69.5T240-552q0 71 59 162.5T480-186Zm0 106Q319-217 239.5-334.5T160-552q0-150 96.5-239T480-880q127 0 223.5 89T800-552q0 100-79.5 217.5T480-80Zm0-480Z"/></symbol>
	<symbol id="call" xmlns="http://www.w3.org/2000/svg" viewBox="0 -960 960 960" fill="currentColor"><path d="M798-120q-125 0-247-54.5T329-329Q229-429 174.5-551T120-798q0-18 12-30t30-12h162q14 0 25 9.5t13 22.5l26 140q2 16-1 27t-11 19l-97 98q20 37 47.5 71.5T387-386q31 31 65 57.5t72 48.5l94-94q9-9 23.5-13.5T670-390l138 28q14 4 23 14.5t9 23.5v162q0 18-12 30t-30 12ZM241-600l66-66-17-94h-89q5 41 14 81t26 79Zm358 358q39 17 79.5 27t81.5 13v-88l-94-19-67 67ZM241-600Zm358 358Z"/></symbol>
	<symbol id="local_shipping" xmlns="http://www.w3.org/2000/svg" viewBox="0 -960 960 960" fill="currentColor"><path d="M240-160q-50 0-85-35t-35-85H40v-440q0-33 23.5-56.5T120-800h560v160h120l120 160v200h-80q0 50-35 85t-85 35q-50 0-85-35t-35-85H360q0 50-35 85t-85 35Zm0-80q17 0 28.5-11.5T280-280q0-17-11.5-28.5T240-320q-17 0-28.5 11.5T200-280q0 17 11.5 28.5T240-240ZM120-360h32q17-18 39-29t49-11q27 0 49 11t39 29h272v-360H120v360Zm600 120q17 0 28.5-11.5T760-280q0-17-11.5-28.5T720-320q-17 0-28.5 11.5T680-280q0 17 11.5 28.5T720-240Zm-40-200h170l-90-120h-80v120ZM360-540Z"/></symbol>
	<symbol id="pan_zoom" xmlns="http://www.w3.org/2000/svg" viewBox="0 -960 960 960" fill="currentColor"><path d="M120-120v-240h80v104l124-124 56 56-124 124h104v80H120Zm516-460-56-56 124-124H600v-80h240v240h-80v-104L636-580Z"/></symbol>
	<symbol id="share" xmlns="http://www.w3.org/2000/svg" viewBox="0 -960 960 960" fill="currentColor"><path d="M720-80q-50 0-85-35t-35-85q0-7 1-14.5t3-13.5L322-392q-17 15-38 23.5t-44 8.5q-50 0-85-35t-35-85q0-50 35-85t85-35q23 0 44 8.5t38 23.5l282-164q-2-6-3-13.5t-1-14.5q0-50 35-85t85-35q50 0 85 35t35 85q0 50-35 85t-85 35q-23 0-44-8.5T638-672L356-508q2 6 3 13.5t1 14.5q0 7-1 14.5t-3 13.5l282 164q17-15 38-23.5t44-8.5q50 0 85 35t35 85q0 50-35 85t-85 35Zm0-640q17 0 28.5-11.5T760-760q0-17-11.5-28.5T720-800q-17 0-28.5 11.5T680-760q0 17 11.5 28.5T720-720ZM240-440q17 0 28.5-11.5T280-480q0-17-11.5-28.5T240-520q-17 0-28.5 11.5T200-480q0 17 11.5 28.5T240-440Zm480 280q17 0 28.5-11.5T760-200q0-17-11.5-28.5T720-240q-17 0-28.5 11.5T680-200q0 17 11.5 28.5T720-160Zm0-600ZM240-480Zm480 280Z"/></symbol>
	<symbol id="sell" xmlns="http://www.w3.org/2000/svg" viewBox="0 -960 960 960" fill="currentColor"><path d="M856-390 570-104q-12 12-27 18t-30 6q-15 0-30-6t-27-18L103-457q-11-11-17-25.5T80-513v-287q0-33 23.5-56.5T160-880h287q16 0 31 6.5t26 17.5l352 353q12 12 17.5 27t5.5 30q0 15-5.5 29.5T856-390ZM513-160l286-286-353-354H160v286l353 354ZM260-640q25 0 42.5-17.5T320-700q0-25-17.5-42.5T260-760q-25 0-42.5 17.5T200-700q0 25 17.5 42.5T260-640Zm220 160Z"/></symbol>
	<symbol id="check-circle" xmlns="http://www.w3.org/2000/svg" viewBox="0 -960 960 960" fill="currentColor"><path d="m424-296 282-282-56-56-226 226-114-114-56 56 170 170Zm56 216q-83 0-156-31.5T197-197q-54-54-85.5-127T80-480q0-83 31.5-156T197-763q54-54 127-85.5T480-880q83 0 156 31.5T763-763q54 54 85.5 127T880-480q0 83-31.5 156T763-197q-54 54-127 85.5T480-80Zm0-80q134 0 227-93t93-227q0-134-93-227t-227-93q-134 0-227 93t-93 227q0 134 93 227t227 93Zm0-320Z"/></symbol>
	<symbol id="error" xmlns="http://www.w3.org/2000/svg" viewBox="0 -960 960 960" fill="currentColor"><path d="M480-280q17 0 28.5-11.5T520-320q0-17-11.5-28.5T480-360q-17 0-28.5 11.5T440-320q0 17 11.5 28.5T480-280Zm-40-160h80v-240h-80v240Zm40 360q-83 0-156-31.5T197-197q-54-54-85.5-127T80-480q0-83 31.5-156T197-763q54-54 127-85.5T480-880q83 0 156 31.5T763-763q54 54 85.5 127T880-480q0 83-31.5 156T763-197q-54 54-127 85.5T480-80Zm0-80q134 0 227-93t93-227q0-134-93-227t-227-93q-134 0-227 93t-93 227q0 134 93 227t227 93Zm0-320Z"/></symbol>
	<symbol id="trash" xmlns="http://www.w3.org/2000/svg" viewBox="0 -960 960 960" fill="currentColor"><path d="M280-120q-33 0-56.5-23.5T200-200v-520h-40v-80h200v-40h240v40h200v80h-40v520q0 33-23.5 56.5T680-120H280Zm400-600H280v520h400v-520ZM360-280h80v-360h-80v360Zm160 0h80v-360h-80v360ZM280-720v520-520Z"/></symbol>
	<symbol id="hamburguerMenu" viewBox="0 0 30 20" fill="none" xmlns="http://www.w3.org/2000/svg"><path fill-rule="evenodd" clip-rule="evenodd" d="M28.875 11.0714H1.125C0.4875 11.0714 0 10.6071 0 10C0 9.39286 0.4875 8.92857 1.125 8.92857H28.875C29.5125 8.92857 30 9.39286 30 10C30 10.6071 29.5125 11.0714 28.875 11.0714ZM28.875 2.14286H1.125C0.4875 2.14286 0 1.67857 0 1.07143C0 0.464286 0.4875 0 1.125 0H28.875C29.5125 0 30 0.464286 30 1.07143C30 1.67857 29.5125 2.14286 28.875 2.14286ZM1.125 17.8571H28.875C29.5125 17.8571 30 18.3214 30 18.9286C30 19.5357 29.5125 20 28.875 20H1.125C0.4875 20 0 19.5357 0 18.9286C0 18.3214 0.4875 17.8571 1.125 17.8571Z" fill="white"/></symbol>
	<symbol id="searchLens" viewBox="0 0 24 24" fill="none" xmlns="http://www.w3.org/2000/svg"><path d="M9.58253 1C4.84873 1 1 4.84958 1 9.5841C1 14.3186 4.84887 18.1682 9.58253 18.1682C11.7583 18.1682 13.7425 17.3526 15.2565 16.0137L22.0789 22.8374C22.1794 22.9409 22.3173 22.9994 22.4613 23C22.6054 23.0006 22.7436 22.9431 22.845 22.8408C22.9464 22.7382 23.0022 22.5994 22.9999 22.4553C22.9979 22.311 22.9378 22.1739 22.8332 22.0747L16.0194 15.2591C17.3541 13.7457 18.1651 11.7567 18.1651 9.58416C18.1651 4.84949 14.3162 1.00005 9.58258 1.00005L9.58253 1ZM9.58253 2.07311C13.7363 2.07311 17.0922 5.42944 17.0922 9.5842C17.0922 13.7388 13.7365 17.0953 9.58253 17.0953C5.42853 17.0953 2.07282 13.739 2.07282 9.5842C2.07282 5.42944 5.42853 2.07311 9.58253 2.07311Z" fill="white" stroke="white"/></symbol>
	<symbol id="userNew" viewBox="0 0 20 23" fill="none" xmlns="http://www.w3.org/2000/svg"><path d="M15.2378 5.64436C15.2378 2.53544 12.7262 0 9.64664 0C6.56704 0 4.05553 2.53544 4.05553 5.64436C4.05553 8.75329 6.56704 11.2887 9.64664 11.2887C12.7262 11.2887 15.2378 8.75329 15.2378 5.64436ZM4.9525 5.64436C4.9525 3.04856 7.04543 0.905513 9.64664 0.905513C12.2479 0.905513 14.3408 3.01838 14.3408 5.64436C14.3408 8.24017 12.2479 10.3832 9.64664 10.3832C7.04543 10.3832 4.9525 8.27035 4.9525 5.64436Z" fill="white"/><path d="M0.228455 22.5471C0.228455 22.7886 0.437748 22.9999 0.67694 22.9999C0.916132 22.9999 1.12542 22.7886 1.12542 22.5471C1.12542 17.3857 4.8628 13.3411 9.64664 13.3411C14.4305 13.3411 18.1679 17.3857 18.1679 22.5471C18.1679 22.7886 18.3771 22.9999 18.6163 22.9999C18.8555 22.9999 19.0648 22.7886 19.0648 22.5471C19.0648 16.8726 14.9388 12.4355 9.64664 12.4355C4.35452 12.4355 0.228455 16.8726 0.228455 22.5471Z" fill="white"/></symbol>
	<symbol id="cartNew" viewBox="0 0 21 24" fill="none" xmlns="http://www.w3.org/2000/svg"><path d="M17.3287 4.45604H14.9133V3.97614C14.9867 1.84364 13.0699 0.0659964 10.6314 0.00178487C8.19671 -0.0624267 6.16009 1.61383 6.09053 3.74633C6.09053 3.82406 6.09053 3.89841 6.09053 3.97614V4.45604H3.67131C1.64629 4.45604 -1.52588e-05 5.89235 -1.52588e-05 7.66661V20.7894C-1.52588e-05 22.5603 1.64629 23.9966 3.67131 24H17.3287C19.3537 24 20.9961 22.5603 21 20.7894V7.66661C21 5.89573 19.3537 4.45942 17.3287 4.45604ZM7.24603 3.97614C7.1842 2.40465 8.59089 1.09 10.384 1.03255C12.1772 0.975096 13.6844 2.20863 13.7501 3.77675C13.7501 3.84096 13.7501 3.90855 13.7501 3.97276V4.45266H7.24603V3.97276V3.97614ZM19.8406 20.7894C19.8406 22.0027 18.716 22.9828 17.3287 22.9861H3.67131C2.28394 22.9861 1.16322 22.0027 1.15935 20.7894V7.66661C1.15935 6.45335 2.28394 5.47328 3.67131 5.4699H6.08666V8.5115C6.08666 8.79201 6.34559 9.01844 6.66634 9.01844C6.9871 9.01844 7.24603 8.79201 7.24603 8.5115V5.4699H13.7539V8.5115C13.7539 8.79201 14.0129 9.01844 14.3336 9.01844C14.6544 9.01844 14.9133 8.79201 14.9133 8.5115V5.4699H17.3287C18.716 5.4699 19.8368 6.45335 19.8406 7.66661V20.7894Z" fill="white"/></symbol>
	<symbol id="userMenu" viewBox="0 0 23 26" fill="none" xmlns="http://www.w3.org/2000/svg"><path d="M17.7386 6.3806C17.7386 2.86615 14.8995 0 11.4182 0C7.93689 0 5.09778 2.86615 5.09778 6.3806C5.09778 9.89504 7.93689 12.7612 11.4182 12.7612C14.8995 12.7612 17.7386 9.89504 17.7386 6.3806Z" fill="black"/><path d="M0.771484 25.4883C0.771484 25.7613 1.00808 26.0002 1.27847 26.0002C1.54886 26.0002 1.78545 25.7613 1.78545 25.4883C1.78545 19.6537 6.01032 15.0815 11.4182 15.0815C16.826 15.0815 21.0509 19.6537 21.0509 25.4883C21.0509 25.7613 21.2874 26.0002 21.5578 26.0002C21.8282 26.0002 22.0648 25.7613 22.0648 25.4883C22.0648 19.0736 17.4006 14.0579 11.4182 14.0579C5.43574 14.0579 0.771484 19.0736 0.771484 25.4883Z" fill="black"/></symbol>
	<symbol id="cartMenu" viewBox="0 0 25 22" fill="none" xmlns="http://www.w3.org/2000/svg"><path d="M14.5959 0.00199296C14.5791 0.00100249 14.5623 0.00100249 14.5455 0.00199296C14.4054 0.0140768 14.2793 0.0923224 14.2061 0.212765C14.1329 0.333208 14.1211 0.481386 14.1741 0.612128L16.6691 7.04657H8.08394L10.5791 0.612128H10.5793C10.6362 0.471679 10.6176 0.311812 10.5302 0.1882C10.4426 0.0645877 10.2985 -0.00573562 10.1475 0.00198793C9.96915 0.00911916 9.81246 0.123222 9.75049 0.291406L6.66313 8.27005C6.65149 8.2958 6.64221 8.32255 6.6357 8.34988C6.42178 8.24152 6.33298 7.98162 6.43541 7.7641L6.71346 7.04641H0.884081C0.394285 7.04641 0 7.44221 0 7.93388V8.37762C0 8.8693 0.394285 9.26509 0.884081 9.26509H23.8702C24.36 9.26509 24.7543 8.8693 24.7543 8.37762V7.93388C24.7543 7.44221 24.36 7.04641 23.8702 7.04641H18.0337L18.3118 7.7641C18.3966 7.97467 18.3094 8.21536 18.1097 8.32214C18.1046 8.30431 18.0983 8.28688 18.0912 8.26985L15.0038 0.291203C14.9408 0.11886 14.7788 0.00316955 14.5961 0L14.5959 0.00199296Z" fill="black"/><path fill-rule="evenodd" clip-rule="evenodd" d="M2.21021 10.1538L4.38767 19.6229C4.66533 20.8303 5.73769 21.6857 6.97262 21.6857H17.7801C19.0151 21.6857 20.0874 20.8303 20.3651 19.6229L22.5425 10.1538H2.21021ZM6.40625 12.5874C6.62175 12.5848 6.80784 12.7386 6.84652 12.9515L7.94828 18.4878C7.97769 18.6059 7.95756 18.7311 7.89243 18.8339C7.82731 18.9365 7.72292 19.008 7.60393 19.0312C7.48493 19.0546 7.36139 19.0278 7.26273 18.9571C7.16386 18.8866 7.09834 18.7782 7.08137 18.6576L5.97804 13.1279C5.95081 13.0057 5.97626 12.8775 6.04829 12.7751C6.12032 12.6727 6.23221 12.6057 6.35614 12.5906C6.37292 12.5897 6.38969 12.5897 6.40666 12.5906L6.40625 12.5874ZM10.1498 12.5874C10.3821 12.5789 10.5814 12.7524 10.6057 12.9844L11.2705 18.5207C11.2882 18.64 11.2573 18.7614 11.1844 18.8573C11.1114 18.9532 11.0029 19.0154 10.8835 19.0294C10.7641 19.0435 10.6443 19.0082 10.5512 18.932C10.458 18.8557 10.3998 18.7448 10.3898 18.6245L9.73024 13.0882L9.73004 13.0884C9.69847 12.8463 9.86739 12.6241 10.1083 12.591C10.1222 12.5902 10.136 12.5902 10.1498 12.591L10.1498 12.5874ZM18.3394 12.5874C18.4746 12.5858 18.6031 12.6463 18.6883 12.7516C18.7734 12.8572 18.8057 12.9959 18.7763 13.1282L17.673 18.6579H17.6728C17.6515 18.7744 17.5844 18.8776 17.4869 18.9442C17.3892 19.0109 17.2692 19.0357 17.1532 19.0131C17.0374 18.9905 16.9353 18.9222 16.8698 18.8237C16.8043 18.7251 16.7808 18.6043 16.8043 18.4882L17.9076 12.9519C17.943 12.7597 18.0995 12.6131 18.2928 12.5913C18.3084 12.5903 18.324 12.5903 18.3396 12.5913L18.3394 12.5874ZM14.5821 12.5874C14.7092 12.587 14.8305 12.6415 14.9148 12.737C14.9991 12.8327 15.0383 12.96 15.0223 13.0866L14.3644 18.6229H14.3646C14.336 18.8676 14.1152 19.0425 13.8715 19.0138C13.628 18.985 13.4535 18.7634 13.4821 18.5189L14.1485 12.9826H14.1487C14.1714 12.7734 14.3374 12.6092 14.5458 12.589C14.558 12.5886 14.57 12.5886 14.5823 12.589L14.5821 12.5874Z" fill="black"/></symbol>
	<symbol id="heartMenu" viewBox="0 0 20 18" fill="none" xmlns="http://www.w3.org/2000/svg"><path d="M19.5161 3.55212C19.2058 2.85701 18.7584 2.22711 18.1988 1.69768C17.6389 1.16667 16.9787 0.744683 16.2542 0.454668C15.5029 0.152745 14.6971 -0.00179573 13.8835 1.57423e-05C12.7422 1.57423e-05 11.6286 0.30237 10.6609 0.873485C10.4294 1.0101 10.2095 1.16016 10.0011 1.32366C9.79279 1.16016 9.57286 1.0101 9.34135 0.873485C8.37364 0.30237 7.26009 1.57423e-05 6.11876 1.57423e-05C5.2969 1.57423e-05 4.50052 0.152313 3.74811 0.454668C3.02118 0.745824 2.36601 1.16464 1.80345 1.69768C1.24319 2.22652 0.795642 2.85657 0.486167 3.55212C0.164371 4.27553 0 5.04374 0 5.83434C0 6.58015 0.157426 7.35731 0.469961 8.14791C0.731565 8.80861 1.10661 9.49395 1.58583 10.186C2.34518 11.2812 3.38928 12.4234 4.68572 13.5813C6.83412 15.5007 8.96167 16.8266 9.05196 16.8804L9.60064 17.2208C9.84372 17.3708 10.1563 17.3708 10.3993 17.2208L10.948 16.8804C11.0383 16.8244 13.1635 15.5007 15.3143 13.5813C16.6107 12.4234 17.6548 11.2812 18.4141 10.186C18.8934 9.49395 19.2707 8.80861 19.53 8.14791C19.8426 7.35731 20 6.58015 20 5.83434C20.0023 5.04374 19.8379 4.27553 19.5161 3.55212Z" fill="black"/></symbol>
	<symbol id="closeBtn" viewBox="0 0 25 26" fill="none" xmlns="http://www.w3.org/2000/svg"><path d="M23.9445 25.0698C23.6734 25.0698 23.4023 24.9669 23.1959 24.7592L12.4621 13.9937L1.80229 24.6212C1.38962 25.0338 0.719896 25.031 0.308628 24.6184C-0.104048 24.2057 -0.102638 23.5374 0.311446 23.1247L11.7192 11.7515C12.1319 11.3388 12.8016 11.3416 13.2129 11.7543L24.6924 23.2684C25.1037 23.681 25.1023 24.3508 24.6896 24.762C24.4833 24.9684 24.2143 25.0698 23.9445 25.0698Z" fill="#3A3A3A"/><path d="M12.4647 13.5562C12.1936 13.5562 11.9238 13.4533 11.7175 13.247L0.309751 1.83856C-0.102925 1.42588 -0.102925 0.757573 0.309751 0.344897C0.722427 -0.0677792 1.39074 -0.0677792 1.80341 0.344897L12.4661 11.0069L23.1985 0.307572C23.6097 -0.103696 24.2795 -0.102286 24.6921 0.31039C25.1034 0.723066 25.102 1.39278 24.6893 1.80405L13.2097 13.2477C13.0041 13.454 12.7344 13.5562 12.4647 13.5562Z" fill="#3A3A3A"/></symbol>
	<symbol id="searchLensNew" viewBox="0 0 16 17" fill="none" xmlns="http://www.w3.org/2000/svg"><path d="M6.3528 0.827148C3.12461 0.827148 0.5 3.45186 0.5 6.67995C0.5 9.908 3.12471 12.5327 6.3528 12.5327C7.83657 12.5327 9.18967 11.9766 10.2221 11.0638L14.8746 15.7163C14.9431 15.7868 15.0372 15.8268 15.1354 15.8271C15.2336 15.8275 15.3279 15.7884 15.3971 15.7186C15.4662 15.6487 15.5042 15.554 15.5027 15.4558C15.5013 15.3574 15.4604 15.2639 15.389 15.1963L10.7424 10.5493C11.6526 9.51741 12.2056 8.16124 12.2056 6.67998C12.2056 3.4518 9.58092 0.827184 6.35283 0.827184L6.3528 0.827148ZM6.3528 1.55881C9.18546 1.55881 11.474 3.84722 11.474 6.68001C11.474 9.51267 9.18559 11.8012 6.3528 11.8012C3.52 11.8012 1.2316 9.5128 1.2316 6.68001C1.2316 3.84722 3.52 1.55881 6.3528 1.55881Z" fill="#606060" stroke="#606060"/></symbol>
	<symbol id="chevronRightWhite" viewBox="0 0 17 33" fill="none" xmlns="http://www.w3.org/2000/svg"><path d="M1 1.14286L16 16.5714L1 32" stroke="white" stroke-width="2" stroke-miterlimit="10" stroke-linecap="round" stroke-linejoin="round"/></symbol>
	<symbol id="chevronLeftWhite" viewBox="0 0 17 33" fill="none" xmlns="http://www.w3.org/2000/svg"><path d="M16 31.8571L1 16.4286L16 1" stroke="white" stroke-width="2" stroke-miterlimit="10" stroke-linecap="round" stroke-linejoin="round"/></symbol>
	<symbol id="minusSign" viewBox="0 0 15 3" fill="none" xmlns="http://www.w3.org/2000/svg"><path d="M0.5 3H14.5V0H0.5V3Z" fill="black"/></symbol>
	<symbol id="plusSign" viewBox="0 0 15 15" fill="none" xmlns="http://www.w3.org/2000/svg"><path d="M14.5 7.51651C14.5 6.97856 14.0639 6.54245 13.5259 6.54245H8.51379V1.51379C8.51379 0.953892 8.0599 0.5 7.5 0.5C6.9401 0.5 6.48621 0.953891 6.48621 1.51379V6.54245H1.47406C0.9361 6.54245 0.5 6.97856 0.5 7.51651C0.5 8.05447 0.9361 8.49057 1.47406 8.49057H6.48621V13.4862C6.48621 14.0461 6.9401 14.5 7.5 14.5C8.0599 14.5 8.51379 14.0461 8.51379 13.4862V8.49057H13.5259C14.0639 8.49057 14.5 8.05447 14.5 7.51651Z" fill="black"/></symbol>
	<symbol id="heartWhite" viewBox="0 0 36 32" fill="none" xmlns="http://www.w3.org/2000/svg"><path d="M34.1774 6.73168C33.6499 5.5286 32.8892 4.43839 31.938 3.52206C30.9861 2.60301 29.8638 1.87265 28.6321 1.3707C27.3549 0.848138 25.985 0.580663 24.602 0.583798C22.6617 0.583798 20.7687 1.1071 19.1236 2.09557C18.73 2.33203 18.3562 2.59174 18.0019 2.87472C17.6477 2.59174 17.2739 2.33203 16.8803 2.09557C15.2352 1.1071 13.3422 0.583798 11.4019 0.583798C10.0047 0.583798 8.65088 0.847389 7.37179 1.3707C6.136 1.87462 5.02222 2.5995 4.06586 3.52206C3.11342 4.43735 2.35259 5.52783 1.82648 6.73168C1.27943 7.98373 1 9.31332 1 10.6817C1 11.9725 1.26762 13.3176 1.79893 14.6859C2.24366 15.8294 2.88123 17.0156 3.69591 18.2134C4.9868 20.1089 6.76177 22.0859 8.96573 24.0899C12.618 27.412 16.2348 29.7067 16.3883 29.7998L17.3211 30.389C17.7343 30.6487 18.2656 30.6487 18.6789 30.389L19.6116 29.7998C19.7651 29.7029 23.378 27.412 27.0342 24.0899C29.2382 22.0859 31.0132 20.1089 32.3041 18.2134C33.1187 17.0156 33.7602 15.8294 34.201 14.6859C34.7323 13.3176 35 11.9725 35 10.6817C35.0039 9.31332 34.7245 7.98373 34.1774 6.73168Z" fill="black" stroke="white"/></symbol>
	<symbol id="nwUser" viewBox="0 0 14 18" fill="none" xmlns="http://www.w3.org/2000/svg"><path d="M6.68362 11.8892C10.3083 11.8892 13.3672 12.4885 13.3672 14.8005C13.3672 17.1134 10.2883 17.6914 6.68362 17.6914C3.05974 17.6914 0 17.0922 0 14.7801C0 12.4673 3.07896 11.8892 6.68362 11.8892ZM6.68362 0.691406C9.13909 0.691406 11.1065 2.69233 11.1065 5.1888C11.1065 7.68528 9.13909 9.68705 6.68362 9.68705C4.22897 9.68705 2.26075 7.68528 2.26075 5.1888C2.26075 2.69233 4.22897 0.691406 6.68362 0.691406Z" fill="black"/></symbol>
	<symbol id="nwEmail" viewBox="0 0 23 19" fill="none" xmlns="http://www.w3.org/2000/svg"><path d="M20.2193 0.691406H2.69591C1.21316 0.691406 0 1.93756 0 3.46064V15.9222C0 16.6566 0.284033 17.361 0.789615 17.8803C1.2952 18.3996 1.98091 18.6914 2.69591 18.6914H20.2193C21.7156 18.6914 22.9153 17.4591 22.9153 15.9222V3.46064C22.9153 2.72619 22.6312 2.02183 22.1256 1.50249C21.6201 0.983164 20.9343 0.691406 20.2193 0.691406ZM20.2193 5.15394C20.2193 5.53461 20.0084 5.88394 19.6716 6.06121L13.3204 9.40345C12.1544 10.0171 10.7609 10.0171 9.59485 9.40345L3.2437 6.06121C2.90683 5.88394 2.69591 5.53461 2.69591 5.15394C2.69591 4.38358 3.51373 3.88842 4.19634 4.24548L9.60363 7.07393C10.765 7.68141 12.1503 7.68141 13.3116 7.07393L18.7189 4.24548C19.4015 3.88842 20.2193 4.38358 20.2193 5.15394Z" fill="black"/></symbol>
	<symbol id="leftArrowShelf" viewBox="0 0 22 44" fill="none" xmlns="http://www.w3.org/2000/svg"><path d="M21 43L1 22L21 1" stroke="black" stroke-width="2" stroke-miterlimit="10" stroke-linecap="round" stroke-linejoin="round"/></symbol>
	<symbol id="rightArrowShelf" viewBox="0 0 22 44" fill="none" xmlns="http://www.w3.org/2000/svg"><path d="M1 1L21 22L1 43" stroke="black" stroke-width="2" stroke-miterlimit="10" stroke-linecap="round" stroke-linejoin="round"/></symbol>
	<symbol id="heartShelf" viewBox="0 0 32 28" fill="none" xmlns="http://www.w3.org/2000/svg"><path d="M30.2742 6.32818C29.8087 5.28552 29.1375 4.34067 28.2983 3.54652C27.4583 2.75 26.4681 2.11703 25.3813 1.682C24.2543 1.22912 23.0456 0.997306 21.8253 1.00002C20.1133 1.00002 18.443 1.45356 16.9914 2.31023C16.3852 2.66797 15.6182 2.66797 15.012 2.31023C13.5605 1.45356 11.8901 1.00002 10.1781 1.00002C8.94535 1.00002 7.75077 1.22847 6.62217 1.682C5.53177 2.11874 4.54902 2.74696 3.70517 3.54652C2.86478 4.33977 2.19346 5.28485 1.72925 6.32818C1.24656 7.4133 1 8.56561 1 9.75151C1 10.8702 1.23614 12.036 1.70494 13.2219C2.09735 14.2129 2.65991 15.2409 3.37874 16.279C4.51776 17.9218 6.08392 19.6351 8.02858 21.372C11.2512 24.2511 14.4425 26.2399 14.5779 26.3205L15.401 26.8312C15.7656 27.0563 16.2344 27.0563 16.599 26.8312L17.422 26.3205C17.5575 26.2366 20.7453 24.2511 23.9714 21.372C25.916 19.6351 27.4822 17.9218 28.6212 16.279C29.3401 15.2409 29.9061 14.2129 30.295 13.2219C30.7638 12.036 31 10.8702 31 9.75151C31.0034 8.56561 30.7569 7.4133 30.2742 6.32818Z" fill="white" stroke="#C3C3C3"/></symbol>
	<symbol id="chevronRighttWhiteBC" viewBox="0 0 5 10" fill="none" xmlns="http://www.w3.org/2000/svg"><path d="M0.990783 0.197889L4.87327 4.63061C4.91936 4.68338 4.95192 4.74055 4.97097 4.80211C4.99032 4.86368 5 4.92964 5 5C5 5.07036 4.99032 5.13632 4.97097 5.19789C4.95192 5.25945 4.91936 5.31662 4.87327 5.36939L0.990782 9.8153C0.883255 9.93843 0.748847 10 0.587556 10C0.426266 10 0.288017 9.93404 0.17281 9.80211C0.0576024 9.67018 -1.39148e-06 9.51627 -1.37729e-06 9.34037C-1.36309e-06 9.16447 0.0576025 9.01055 0.17281 8.87863L3.55991 5L0.17281 1.12137C0.0652835 0.99824 0.0115197 0.846613 0.0115197 0.66649C0.0115197 0.486016 0.0691236 0.329814 0.184331 0.197889C0.299538 0.0659624 0.433947 -3.99177e-07 0.587557 -3.85748e-07C0.741167 -3.72319e-07 0.875575 0.0659624 0.990783 0.197889Z" fill="white"/></symbol>
	<symbol id="upDownArrows" viewBox="0 0 19 14" fill="none" xmlns="http://www.w3.org/2000/svg"><path d="M4.90546 13.0001C4.77842 13.0001 4.67573 12.9072 4.67573 12.7932V1.70741L1.39221 4.66433C1.30238 4.74522 1.15719 4.74522 1.06737 4.66433C0.977544 4.58344 0.977544 4.45269 1.06737 4.3718L4.74304 1.06174C4.76602 1.04106 4.79244 1.02575 4.82069 1.01561C4.82069 1.01561 4.821 1.01547 4.82161 1.0152C4.8455 1.00671 4.85446 0.996577 4.89788 1.00113C4.89834 1.00196 4.90271 1.00113 4.90546 1.00113C4.90822 1.00113 4.9135 1.00113 4.91304 1.00113C4.94888 1.01044 4.96519 1.00713 4.98931 1.0152C4.98931 1.0152 4.98977 1.01561 4.99023 1.01561C5.01849 1.02575 5.04491 1.04106 5.06788 1.06174L8.74356 4.3718C8.83338 4.45269 8.83338 4.58344 8.74356 4.66433C8.65373 4.74522 8.50854 4.74522 8.41872 4.66433L5.13519 1.70741V12.7932C5.13519 12.9072 5.0325 13.0001 4.90546 13.0001Z" fill="black"/><path d="M14.0867 13.0003C14.0598 12.9995 14.0346 12.9948 14.0114 12.9859C13.9827 12.9761 13.9549 12.9608 13.9323 12.9397L10.2567 9.62966C10.1668 9.54877 10.1668 9.41803 10.2567 9.33714C10.347 9.25625 10.4926 9.25625 10.5815 9.33714L13.865 12.2941V1.20825C13.865 1.09385 13.9682 1.00137 14.0948 1.00137C14.2213 1.00137 14.3245 1.09385 14.3245 1.20825V12.2941L17.608 9.33714C17.6978 9.25625 17.843 9.25625 17.9329 9.33714C18.0227 9.41803 18.0227 9.54877 17.9329 9.62966L14.2572 12.9397C14.2347 12.9608 14.2078 12.9761 14.1791 12.9859C14.1556 12.9948 14.1297 12.9995 14.1028 13.0003H14.0867Z" fill="black"/><path d="M4.90546 13.0001C4.77842 13.0001 4.67573 12.9072 4.67573 12.7932V1.70741L1.39221 4.66433C1.30238 4.74522 1.15719 4.74522 1.06737 4.66433C0.977544 4.58344 0.977544 4.45269 1.06737 4.3718L4.74304 1.06174C4.76602 1.04106 4.79244 1.02575 4.82069 1.01561C4.82069 1.01561 4.821 1.01547 4.82161 1.0152C4.8455 1.00671 4.85446 0.996577 4.89788 1.00113C4.89834 1.00196 4.90271 1.00113 4.90546 1.00113C4.90822 1.00113 4.9135 1.00113 4.91304 1.00113C4.94888 1.01044 4.96519 1.00713 4.98931 1.0152C4.98931 1.0152 4.98977 1.01561 4.99023 1.01561C5.01849 1.02575 5.04491 1.04106 5.06788 1.06174L8.74356 4.3718C8.83338 4.45269 8.83338 4.58344 8.74356 4.66433C8.65373 4.74522 8.50854 4.74522 8.41872 4.66433L5.13519 1.70741V12.7932C5.13519 12.9072 5.0325 13.0001 4.90546 13.0001Z" stroke="black"/><path d="M14.0867 13.0003C14.0598 12.9995 14.0346 12.9948 14.0114 12.9859C13.9827 12.9761 13.9549 12.9608 13.9323 12.9397L10.2567 9.62966C10.1668 9.54877 10.1668 9.41803 10.2567 9.33714C10.347 9.25625 10.4926 9.25625 10.5815 9.33714L13.865 12.2941V1.20825C13.865 1.09385 13.9682 1.00137 14.0948 1.00137C14.2213 1.00137 14.3245 1.09385 14.3245 1.20825V12.2941L17.608 9.33714C17.6978 9.25625 17.843 9.25625 17.9329 9.33714C18.0227 9.41803 18.0227 9.54877 17.9329 9.62966L14.2572 12.9397C14.2347 12.9608 14.2078 12.9761 14.1791 12.9859C14.1556 12.9948 14.1297 12.9995 14.1028 13.0003H14.0867Z" stroke="black"/></symbol>
	<symbol id="filtersWhite" viewBox="0 0 21 21" fill="none" xmlns="http://www.w3.org/2000/svg"><path d="M18.5 6.26196H7.5M5.5 6.26196H2.5M18.5 16.262H7.5M5.5 16.262H2.5M13.5 11.262H2.5M18.5 11.262H15.5M6.5 4.26196C6.76522 4.26196 7.01957 4.36732 7.20711 4.55486C7.39464 4.74239 7.5 4.99675 7.5 5.26196V7.26196C7.5 7.52718 7.39464 7.78153 7.20711 7.96907C7.01957 8.15661 6.76522 8.26196 6.5 8.26196C6.23478 8.26196 5.98043 8.15661 5.79289 7.96907C5.60536 7.78153 5.5 7.52718 5.5 7.26196V5.26196C5.5 4.99675 5.60536 4.74239 5.79289 4.55486C5.98043 4.36732 6.23478 4.26196 6.5 4.26196V4.26196ZM6.5 14.262C6.76522 14.262 7.01957 14.3673 7.20711 14.5549C7.39464 14.7424 7.5 14.9967 7.5 15.262V17.262C7.5 17.5272 7.39464 17.7815 7.20711 17.9691C7.01957 18.1566 6.76522 18.262 6.5 18.262C6.23478 18.262 5.98043 18.1566 5.79289 17.9691C5.60536 17.7815 5.5 17.5272 5.5 17.262V15.262C5.5 14.9967 5.60536 14.7424 5.79289 14.5549C5.98043 14.3673 6.23478 14.262 6.5 14.262ZM14.5 9.26196C14.7652 9.26196 15.0196 9.36732 15.2071 9.55486C15.3946 9.74239 15.5 9.99675 15.5 10.262V12.262C15.5 12.5272 15.3946 12.7815 15.2071 12.9691C15.0196 13.1566 14.7652 13.262 14.5 13.262C14.2348 13.262 13.9804 13.1566 13.7929 12.9691C13.6054 12.7815 13.5 12.5272 13.5 12.262V10.262C13.5 9.99675 13.6054 9.74239 13.7929 9.55486C13.9804 9.36732 14.2348 9.26196 14.5 9.26196V9.26196Z" stroke="white" stroke-linecap="round" stroke-linejoin="round"/></symbol>
</svg>
